<?xml version="1.0" encoding="utf-8"?>
<!-- Generator: Adobe Illustrator 21.1.0, SVG Export Plug-In . SVG Version: 6.00 Build 0)  -->
<svg version="1.1" id="Слой_1" xmlns="http://www.w3.org/2000/svg" xmlns:xlink="http://www.w3.org/1999/xlink" x="0px" y="0px"
	 width="28px" height="28px" viewBox="0 0 28 28" style="enable-background:new 0 0 28 28;" xml:space="preserve">
<g>
	<g>
		<path style="clip-path:url(#SVGID_2_);" d="M27.7,26.1l-6.7-6.7c1.8-2.1,2.9-4.8,2.9-7.7C23.9,5.3,18.7,0,12.2,0
			C5.7,0,0.5,5.3,0.5,11.8s5.3,11.7,11.7,11.7c2.9,0,5.6-1.1,7.7-2.9l6.7,6.7c0.2,0.2,0.4,0.2,0.6,0.2c0.2,0,0.4-0.1,0.6-0.2
			C28.1,27,28.1,26.5,27.7,26.1L27.7,26.1z M2.1,11.8c0-5.6,4.5-10.1,10.1-10.1c5.6,0,10.1,4.5,10.1,10.1s-4.5,10.1-10.1,10.1
			C6.6,21.8,2.1,17.3,2.1,11.8L2.1,11.8z M2.1,11.8"/>
	</g>
</g>
</svg>
